<?xml version="1.0" standalone="no"?><!DOCTYPE svg PUBLIC "-//W3C//DTD SVG 1.1//EN" "http://www.w3.org/Graphics/SVG/1.1/DTD/svg11.dtd"><svg t="1588237471017" class="icon" viewBox="0 0 1120 1024" version="1.1" xmlns="http://www.w3.org/2000/svg" p-id="5389" xmlns:xlink="http://www.w3.org/1999/xlink" width="218.75" height="200"><defs><style type="text/css"></style></defs><path d="M553.984 855.04a47.68 47.68 0 0 1-32.768-14.336l-337.92-337.92c-18.432-18.432-18.432-48.128 0-66.56s48.128-18.432 65.536 0l305.152 305.152 305.152-305.152c18.432-18.432 48.128-18.432 66.56 0s18.432 48.128 0 66.56l-337.92 337.92a48.192 48.192 0 0 1-33.792 14.336z m0 0c-25.6 0-47.104-21.504-47.104-47.104V47.104C506.88 20.48 528.384 0 553.984 0s47.104 20.48 47.104 47.104v760.832c0 25.6-20.48 47.104-47.104 47.104zM1061.888 1024H47.104C21.504 1024 0 1003.52 0 976.896c0-25.6 21.504-47.104 47.104-47.104h1014.784c25.6 0 47.104 21.504 47.104 47.104 0 26.624-21.504 47.104-47.104 47.104z" p-id="5390"></path></svg>