<?xml version="1.0" standalone="no"?><!DOCTYPE svg PUBLIC "-//W3C//DTD SVG 1.1//EN" "http://www.w3.org/Graphics/SVG/1.1/DTD/svg11.dtd"><svg t="1588231151896" class="icon" viewBox="0 0 1024 1024" version="1.1" xmlns="http://www.w3.org/2000/svg" p-id="11316" xmlns:xlink="http://www.w3.org/1999/xlink" width="200" height="200"><defs><style type="text/css"></style></defs><path d="M902.095238 314.514286V853.333333a97.52381 97.52381 0 0 1-97.523809 97.52381H219.428571a97.52381 97.52381 0 0 1-97.523809-97.52381V170.666667a97.52381 97.52381 0 0 1 97.523809-97.52381h441.295239z" fill="#BABABA" p-id="11317"></path><path d="M660.72381 216.990476V73.142857l241.371428 241.371429h-143.847619a97.52381 97.52381 0 0 1-97.523809-97.52381z" fill="#979797" p-id="11318"></path><path d="M576.121905 520.289524a121.904762 121.904762 0 0 1-3.169524 42.179047l38.278095 19.260953a128.24381 128.24381 0 0 1-8.777143 22.674286l-3.657143 7.314285a135.558095 135.558095 0 0 1-12.921904 20.236191l-38.278096-19.260953a124.099048 124.099048 0 0 1-31.939047 27.550477l13.165714 40.71619a152.380952 152.380952 0 0 1-25.843809 10.971429 158.72 158.72 0 0 1-27.306667 6.582857L463.238095 658.285714a121.904762 121.904762 0 0 1-42.179047-3.169524l-19.504762 38.278096a133.607619 133.607619 0 0 1-22.430476-8.777143l-7.314286-3.657143a135.558095 135.558095 0 0 1-20.236191-12.921905l19.260953-38.278095A129.950476 129.950476 0 0 1 341.333333 597.333333l-40.472381 13.409524a163.84 163.84 0 0 1-10.24-25.6l-6.582857-27.306667 40.716191-13.409523a121.904762 121.904762 0 0 1 3.169524-42.179048l-38.278096-19.260952a159.695238 159.695238 0 0 1 6.826667-19.017143l7.314286-14.384762a155.062857 155.062857 0 0 1 11.215238-16.822857l38.278095 19.260952a124.099048 124.099048 0 0 1 31.939048-27.550476l-13.409524-40.716191a155.062857 155.062857 0 0 1 26.087619-10.971428l27.306667-7.070476 13.653333 40.71619a121.904762 121.904762 0 0 1 42.179047 3.169524l19.260953-38.278095a126.780952 126.780952 0 0 1 19.017143 7.070476l3.657143 1.706667 7.070476 3.657142 3.657143 1.950477a124.342857 124.342857 0 0 1 16.822857 10.971428l-19.260953 38.278095a124.099048 124.099048 0 0 1 27.550477 31.939048l40.71619-13.409524a163.84 163.84 0 0 1 9.996191 26.087619 185.295238 185.295238 0 0 1 6.582857 27.306667z" fill="#FFFFFF" p-id="11319"></path><path d="M450.31619 532.23619m-72.655238 0a72.655238 72.655238 0 1 0 145.310477 0 72.655238 72.655238 0 1 0-145.310477 0Z" fill="#BABABA" p-id="11320"></path><path d="M709.485714 734.598095a63.634286 63.634286 0 0 1-15.11619 15.116191l8.289524 19.748571a64.365714 64.365714 0 0 1-10.727619 5.607619l-3.657143 1.706667a64.365714 64.365714 0 0 1-11.702857 3.413333l-8.045715-19.748571a61.927619 61.927619 0 0 1-21.211428 0l-8.289524 19.748571a71.68 71.68 0 0 1-13.409524-4.388571 74.605714 74.605714 0 0 1-12.434286-6.339048l8.289524-19.748571a68.266667 68.266667 0 0 1-15.11619-15.116191l-19.748572 8.289524a64.365714 64.365714 0 0 1-5.607619-10.727619l-1.706666-3.657143a70.704762 70.704762 0 0 1-3.413334-11.702857l19.748572-8.045714a68.754286 68.754286 0 0 1 0-21.211429l-19.748572-8.289524a71.68 71.68 0 0 1 4.388572-13.409523l6.339047-12.434286 19.748572 8.289524a73.142857 73.142857 0 0 1 15.11619-15.116191l-8.289524-19.748571 8.777143-4.876191 7.558095-3.169524 9.752381-2.681904 8.045715 19.748571a61.927619 61.927619 0 0 1 21.211428 0l8.289524-19.748571a71.68 71.68 0 0 1 13.409524 4.388571l12.434286 6.339048-8.045715 19.748571a62.659048 62.659048 0 0 1 14.872381 15.116191l19.748572-8.289524a78.994286 78.994286 0 0 1 4.87619 8.777143v1.950476l1.706667 3.657143v1.950476c0 3.169524 1.950476 6.339048 2.681905 9.752381l-19.748572 8.045714a61.927619 61.927619 0 0 1 0 21.211429l19.748572 8.289524a71.68 71.68 0 0 1-4.388572 13.409523 74.605714 74.605714 0 0 1-6.339047 12.434286z" fill="#FFFFFF" p-id="11321"></path><path d="M658.041905 698.026667m-36.327619 0a36.327619 36.327619 0 1 0 72.655238 0 36.327619 36.327619 0 1 0-72.655238 0Z" fill="#BABABA" p-id="11322"></path></svg>