<?xml version="1.0" standalone="no"?><!DOCTYPE svg PUBLIC "-//W3C//DTD SVG 1.1//EN" "http://www.w3.org/Graphics/SVG/1.1/DTD/svg11.dtd"><svg t="1588042709144" class="icon" viewBox="0 0 1024 1024" version="1.1" xmlns="http://www.w3.org/2000/svg" p-id="1157" xmlns:xlink="http://www.w3.org/1999/xlink" width="128" height="64"><defs><style type="text/css"></style></defs><path d="M634.88 512.512H389.12c-22.528 0-40.96 18.432-40.96 40.96s18.432 40.96 40.96 40.96h245.76c22.528 0 40.96-18.432 40.96-40.96s-18.432-40.96-40.96-40.96zM634.88 676.352H389.12c-22.528 0-40.96 18.432-40.96 40.96s18.432 40.96 40.96 40.96h245.76c22.528 0 40.96-18.432 40.96-40.96s-18.432-40.96-40.96-40.96z" p-id="1158"></path><path d="M839.168 387.072c0-1.536 0-3.072-0.512-4.608 0-1.024-0.512-2.56-1.024-3.584-0.512-1.536-0.512-2.56-1.024-4.096-0.512-1.024-1.024-2.56-1.536-3.584s-1.024-2.56-2.048-3.584c-1.024-1.024-1.536-2.56-2.56-3.584-0.512-0.512-1.024-1.536-1.536-2.048l-225.28-245.76-0.512-0.512-3.072-3.072c-1.024-1.024-2.048-1.536-3.072-2.56s-2.56-1.536-3.584-2.048c-1.024-0.512-2.048-1.536-3.584-2.048-1.024-0.512-2.56-1.024-3.584-1.536s-2.56-1.024-3.584-1.024c-1.024-0.512-2.56-0.512-3.584-0.512-1.536 0-3.072-0.512-4.608-0.512H307.2c-67.584 0-122.88 55.296-122.88 122.88v573.44c0 67.584 55.296 122.88 122.88 122.88h409.6c67.584 0 122.88-55.296 122.88-122.88V389.12c0-0.512 0-1.024-0.512-2.048zM593.92 226.816l111.616 121.856H634.88c-22.528 0-40.96-18.432-40.96-40.96V226.816z m122.88 613.376H307.2c-22.528 0-40.96-18.432-40.96-40.96v-573.44c0-22.528 18.432-40.96 40.96-40.96h204.8v122.88c0 67.584 55.296 122.88 122.88 122.88h122.88v368.64c0 22.528-18.432 40.96-40.96 40.96z" p-id="1159"></path></svg>