<?xml version="1.0" standalone="no"?><!DOCTYPE svg PUBLIC "-//W3C//DTD SVG 1.1//EN" "http://www.w3.org/Graphics/SVG/1.1/DTD/svg11.dtd"><svg t="1588237341097" class="icon" viewBox="0 0 1024 1024" version="1.1" xmlns="http://www.w3.org/2000/svg" p-id="2473" xmlns:xlink="http://www.w3.org/1999/xlink" width="200" height="200"><defs><style type="text/css"></style></defs><path d="M723.968 1024H394.752c-62.464 0-113.152-50.176-113.152-111.616V265.216c0-61.44 50.688-111.616 113.152-111.616h438.784c62.464 0 113.152 50.176 113.152 111.616v452.608c0 26.112-21.504 47.104-47.616 47.104h-109.568c-9.728 0-18.432 8.192-18.432 17.408v194.048c0.512 26.624-20.992 47.616-47.104 47.616zM394.752 204.8C360.448 204.8 332.8 231.936 332.8 265.216v646.656c0 33.28 27.648 60.416 61.952 60.416h325.632v-189.952c0-37.888 31.232-68.608 69.632-68.608H896V265.216c0-33.28-27.648-60.416-61.952-60.416H394.752z" p-id="2474"></path><path d="M717.4144 978.70848l177.88416-261.06368 42.31168 28.83072-177.88416 261.0688zM834.048 398.848H394.752c-14.336 0-25.6-11.264-25.6-25.6s11.264-25.6 25.6-25.6h438.784c14.336 0 25.6 11.264 25.6 25.6s-11.264 25.6-25.088 25.6zM834.048 528.384H394.752c-14.336 0-25.6-11.264-25.6-25.6s11.264-25.6 25.6-25.6h438.784c14.336 0 25.6 11.264 25.6 25.6s-11.264 25.6-25.088 25.6zM834.048 657.408H394.752c-14.336 0-25.6-11.264-25.6-25.6s11.264-25.6 25.6-25.6h438.784c14.336 0 25.6 11.264 25.6 25.6s-11.264 25.6-25.088 25.6zM658.432 786.944H394.752c-14.336 0-25.6-11.264-25.6-25.6s11.264-25.6 25.6-25.6h263.168c14.336 0 25.6 11.264 25.6 25.6s-11.264 25.6-25.088 25.6z" p-id="2475"></path><path d="M308.736 870.4H215.552c-62.464 0-113.152-50.176-113.152-111.616V111.616C102.4 50.176 153.088 0 215.552 0h438.784C717.312 0 768 50.176 768 111.616v61.952h-51.2V111.616c0-33.28-27.648-60.416-61.952-60.416H215.552C181.248 51.2 153.6 78.336 153.6 111.616v646.656c0 33.28 27.648 60.416 61.952 60.416h93.184V870.4z" p-id="2476"></path></svg>