<?xml version="1.0" standalone="no"?><!DOCTYPE svg PUBLIC "-//W3C//DTD SVG 1.1//EN" "http://www.w3.org/Graphics/SVG/1.1/DTD/svg11.dtd"><svg t="1588237396935" class="icon" viewBox="0 0 1024 1024" version="1.1" xmlns="http://www.w3.org/2000/svg" p-id="2848" xmlns:xlink="http://www.w3.org/1999/xlink" width="200" height="200"><defs><style type="text/css"></style></defs><path d="M844.8 1024H179.2c-42.496 0-76.8-34.304-76.8-76.8V76.8c0-42.496 34.304-76.8 76.8-76.8h128c14.336 0 25.6 11.264 25.6 25.6s-11.264 25.6-25.6 25.6H179.2c-14.336 0-25.6 11.264-25.6 25.6v870.4c0 14.336 11.264 25.6 25.6 25.6h665.6c14.336 0 25.6-11.264 25.6-25.6V76.8c0-14.336-11.264-25.6-25.6-25.6h-128c-14.336 0-25.6-11.264-25.6-25.6s11.264-25.6 25.6-25.6h128c42.496 0 76.8 34.304 76.8 76.8v870.4c0 42.496-34.304 76.8-76.8 76.8z" fill="" p-id="2849"></path><path d="M614.4 51.2H409.6c-14.336 0-25.6-11.264-25.6-25.6s11.264-25.6 25.6-25.6h204.8c14.336 0 25.6 11.264 25.6 25.6s-11.264 25.6-25.6 25.6zM716.8 332.8H307.2c-14.336 0-25.6-11.264-25.6-25.6s11.264-25.6 25.6-25.6h409.6c14.336 0 25.6 11.264 25.6 25.6s-11.264 25.6-25.6 25.6zM716.8 469.504H307.2c-14.336 0-25.6-11.264-25.6-25.6s11.264-25.6 25.6-25.6h409.6c14.336 0 25.6 11.264 25.6 25.6s-11.264 25.6-25.6 25.6zM716.8 605.696H307.2c-14.336 0-25.6-11.264-25.6-25.6s11.264-25.6 25.6-25.6h409.6c14.336 0 25.6 11.264 25.6 25.6s-11.264 25.6-25.6 25.6zM716.8 742.4H307.2c-14.336 0-25.6-11.264-25.6-25.6s11.264-25.6 25.6-25.6h409.6c14.336 0 25.6 11.264 25.6 25.6s-11.264 25.6-25.6 25.6z" fill="" p-id="2850"></path></svg>